<svg width="118" height="24" viewBox="0 0 118 24" fill="none" xmlns="http://www.w3.org/2000/svg">
<path d="M9.51457 0L2.71109 4.25739L14.7737 10.3096V24L21.6607 19.7009V6.17739L9.51457 0Z" fill="#DFFE00"/>
<path d="M10.8964 16.3581C10.8964 19.367 8.45719 21.8063 5.44822 21.8063C2.43925 21.8063 0 19.367 0 16.3581C0 13.3491 2.43925 10.9098 5.44822 10.9098C8.45719 10.9098 10.8964 13.3491 10.8964 16.3581Z" fill="white"/>
<path d="M103.196 16.4109L104.036 14.1709H112.716L113.556 16.4109H103.196ZM108.32 7.11494L105.016 14.8989L104.792 15.4029L101.88 22.2909H99.2201L108.32 1.71094L117.42 22.2909H114.76L111.904 15.5709L111.68 15.0109L108.32 7.11494Z" fill="white"/>
<path d="M76.6962 9.04694L75.2402 22.2909H72.8602L75.2402 1.71094L83.0802 15.9069L90.9202 1.71094L93.3001 22.2909H90.9202L89.4641 9.04694L83.0802 20.4709L76.6962 9.04694Z" fill="white"/>
<path d="M57.2802 12.6309H59.9402L66.9402 22.2909H64.0002L57.2802 12.6309ZM53.7802 2.69094H56.1602V22.2909H53.7802V2.69094ZM55.0962 4.79094V2.69094H59.1002C60.3695 2.69094 61.4988 2.9336 62.4882 3.41894C63.4962 3.8856 64.2895 4.5576 64.8681 5.43494C65.4655 6.31227 65.7642 7.3576 65.7642 8.57094C65.7642 9.7656 65.4655 10.8109 64.8681 11.7069C64.2895 12.5843 63.4962 13.2656 62.4882 13.7509C61.4988 14.2176 60.3695 14.4509 59.1002 14.4509H55.0962V12.3509H59.1002C59.9402 12.3509 60.6775 12.2016 61.3122 11.9029C61.9655 11.6043 62.4695 11.1749 62.8242 10.6149C63.1975 10.0549 63.3842 9.3736 63.3842 8.57094C63.3842 7.76827 63.1975 7.08694 62.8242 6.52694C62.4695 5.96694 61.9655 5.5376 61.3122 5.23894C60.6775 4.94027 59.9402 4.79094 59.1002 4.79094H55.0962Z" fill="white"/>
<path d="M33.6362 16.4109L34.4762 14.1709H43.1562L43.9962 16.4109H33.6362ZM38.7602 7.11494L35.4562 14.8989L35.2322 15.4029L32.3202 22.2909H29.6602L38.7602 1.71094L47.8602 22.2909H45.2002L42.3442 15.5709L42.1202 15.0109L38.7602 7.11494Z" fill="white"/>
</svg>
