<svg width="74" height="14" viewBox="0 0 74 14" fill="none" xmlns="http://www.w3.org/2000/svg">
<rect x="10" y="3" width="8" height="8" rx="4" fill="#FF1385"/>
<rect y="3" width="8" height="8" fill="black"/>
<path d="M19.792 9.889H21.596V3.971H19.792V2.86H23.004V9.889H24.819V11H19.792V9.889ZM29.9627 9.999H29.9077C29.783 10.307 29.5887 10.5747 29.3247 10.802C29.068 11.022 28.7087 11.132 28.2467 11.132C27.6894 11.132 27.2347 10.9487 26.8827 10.582C26.538 10.208 26.3657 9.67633 26.3657 8.987V5.324H27.7737V8.789C27.7737 9.61033 28.1294 10.021 28.8407 10.021C28.98 10.021 29.1157 10.0027 29.2477 9.966C29.387 9.92933 29.508 9.87433 29.6107 9.801C29.7207 9.72033 29.805 9.625 29.8637 9.515C29.9297 9.405 29.9627 9.273 29.9627 9.119V5.324H31.3707V11H29.9627V9.999ZM32.5984 11V5.324H33.7644V6.105H33.8304C33.9184 5.85567 34.0431 5.643 34.2044 5.467C34.3731 5.28367 34.6077 5.192 34.9084 5.192C35.1944 5.192 35.4217 5.27633 35.5904 5.445C35.7591 5.60633 35.8691 5.83733 35.9204 6.138H35.9754C36.0707 5.88133 36.2101 5.66133 36.3934 5.478C36.5841 5.28733 36.8517 5.192 37.1964 5.192C37.6144 5.192 37.9151 5.34233 38.0984 5.643C38.2817 5.94367 38.3734 6.38733 38.3734 6.974V11H37.2184V7.139C37.2184 6.809 37.1707 6.578 37.0754 6.446C36.9874 6.314 36.8517 6.248 36.6684 6.248C36.4997 6.248 36.3567 6.303 36.2394 6.413C36.1294 6.523 36.0744 6.69167 36.0744 6.919V11H34.9084V7.139C34.9084 6.809 34.8644 6.578 34.7764 6.446C34.6884 6.314 34.5527 6.248 34.3694 6.248C34.1934 6.248 34.0467 6.303 33.9294 6.413C33.8194 6.523 33.7644 6.69167 33.7644 6.919V11H32.5984ZM42.4391 4.444C42.1091 4.444 41.8744 4.37433 41.7351 4.235C41.6031 4.09567 41.5371 3.927 41.5371 3.729V3.465C41.5371 3.267 41.6031 3.09833 41.7351 2.959C41.8744 2.81967 42.1091 2.75 42.4391 2.75C42.7691 2.75 43.0001 2.81967 43.1321 2.959C43.2714 3.09833 43.3411 3.267 43.3411 3.465V3.729C43.3411 3.927 43.2714 4.09567 43.1321 4.235C43.0001 4.37433 42.7691 4.444 42.4391 4.444ZM39.8651 9.889H41.7351V6.435H39.8651V5.324H43.1431V9.889H44.8811V11H39.8651V9.889ZM46.2078 11V5.324H47.6158V6.325H47.6708C47.7955 6.017 47.9861 5.753 48.2428 5.533C48.5068 5.30567 48.8698 5.192 49.3318 5.192C49.8891 5.192 50.3401 5.379 50.6848 5.753C51.0368 6.11967 51.2128 6.64767 51.2128 7.337V11H49.8048V7.535C49.8048 6.71367 49.4491 6.303 48.7378 6.303C48.5911 6.303 48.4518 6.32133 48.3198 6.358C48.1878 6.39467 48.0668 6.45333 47.9568 6.534C47.8541 6.60733 47.7698 6.699 47.7038 6.809C47.6451 6.919 47.6158 7.051 47.6158 7.205V11H46.2078ZM57.3685 11C57.0238 11 56.7562 10.9157 56.5655 10.747C56.3822 10.571 56.2722 10.329 56.2355 10.021H56.1805C56.0778 10.373 55.8762 10.648 55.5755 10.846C55.2748 11.0367 54.9045 11.132 54.4645 11.132C53.8925 11.132 53.4378 10.9817 53.1005 10.681C52.7632 10.3803 52.5945 9.96233 52.5945 9.427C52.5945 8.283 53.4342 7.711 55.1135 7.711H56.1145V7.337C56.1145 6.97767 56.0265 6.70633 55.8505 6.523C55.6745 6.33967 55.3885 6.248 54.9925 6.248C54.6332 6.248 54.3435 6.31767 54.1235 6.457C53.9035 6.59633 53.7165 6.776 53.5625 6.996L52.7595 6.314C52.9355 5.99867 53.2178 5.73467 53.6065 5.522C54.0025 5.302 54.5122 5.192 55.1355 5.192C55.8835 5.192 56.4665 5.368 56.8845 5.72C57.3098 6.06467 57.5225 6.58167 57.5225 7.271V9.944H58.1935V11H57.3685ZM54.9375 10.164C55.2748 10.164 55.5535 10.087 55.7735 9.933C56.0008 9.77167 56.1145 9.55533 56.1145 9.284V8.525H55.1465C54.3765 8.525 53.9915 8.767 53.9915 9.251V9.471C53.9915 9.69833 54.0758 9.87067 54.2445 9.988C54.4132 10.1053 54.6442 10.164 54.9375 10.164ZM62.2262 4.444C61.8962 4.444 61.6616 4.37433 61.5222 4.235C61.3902 4.09567 61.3242 3.927 61.3242 3.729V3.465C61.3242 3.267 61.3902 3.09833 61.5222 2.959C61.6616 2.81967 61.8962 2.75 62.2262 2.75C62.5562 2.75 62.7872 2.81967 62.9192 2.959C63.0586 3.09833 63.1282 3.267 63.1282 3.465V3.729C63.1282 3.927 63.0586 4.09567 62.9192 4.235C62.7872 4.37433 62.5562 4.444 62.2262 4.444ZM59.6522 9.889H61.5222V6.435H59.6522V5.324H62.9302V9.889H64.6682V11H59.6522V9.889ZM65.9949 9.889H67.4029V6.435H65.9949V5.324H68.8109V6.875H68.8989C68.9503 6.677 69.0199 6.48633 69.1079 6.303C69.2033 6.11233 69.3206 5.94733 69.4599 5.808C69.6066 5.66133 69.7826 5.544 69.9879 5.456C70.1933 5.368 70.4389 5.324 70.7249 5.324H71.3409V6.644H70.1749C69.7496 6.644 69.4159 6.76867 69.1739 7.018C68.9319 7.26733 68.8109 7.58633 68.8109 7.975V9.889H70.7799V11H65.9949V9.889Z" fill="black"/>
</svg>
