<svg width="589" height="132" viewBox="0 0 589 132" fill="none" xmlns="http://www.w3.org/2000/svg">
<path fill-rule="evenodd" clip-rule="evenodd" d="M47.4838 6L96.5 90.5L95 91.5L60.7883 31.2144L92.5 92L91.5 92.5L62.068 36.2519L89.5 94L88.5 94.5L61.1066 37.0468L81.0297 87.9279L79.4208 83.9791L68.0846 56.1543L84.4967 96.4376L83.3776 96.8985L59.5592 38.4365C64.5417 52.1621 70.8208 71.6898 75.0802 83.9791L73.8259 80.4057L80.2199 98.6211L79.0796 99.0257L55.5849 32.0945L76.0513 100.347L74.8935 100.698L53.7274 30.1117L71.5247 102.733L70.3506 103.024L56.8838 48.0732L62.8153 83.6911L61.4325 76.5L58.7096 62.3399L66.921 105.042L65.7337 105.273L50.5566 26.3464L61.0319 108.044L59.8326 108.199L49.4991 27.6077L52.1775 70L52.1581 69.6999L54.8382 110.969L53.6315 111.049L48.0574 25.216V114H46.5L46.8624 19.0661L37.3775 109.664L36.5 108.199L45.5665 19.8301L28.4505 104.633L27.2654 104.391L44.3283 19.8513L20.2056 100.077L19.048 99.7252L42.214 22.6817L13.7599 96.8867L12.6316 96.4493L41.169 22.0268L7.31088 93.6958L6.21859 93.1742L39.4404 22.8521L2 90.5L2.27673 90L47.4838 6Z" fill="#F86032" stroke="#F86032"/>
<path d="M1.354 106.022L46.8724 129.734L94.8989 106.022" stroke="#F86032"/>
<path d="M1.354 99.0274L46.8724 122.74L94.8989 99.0274" stroke="#F86032"/>
<path d="M0.5 90L46.8725 114.713L94.899 91" stroke="#F86032"/>
<path d="M0.690338 90.2923L47 7.90985V114.06L0.690338 90.2923Z" fill="#F86032" stroke="#F86032"/>
<path d="M170.2 99H116.3V22H127.08V84.7C127.08 87.23 125.87 89.98 124.11 91.74L124.22 91.85C125.98 90.09 128.73 88.88 131.26 88.88H170.2V99ZM175.597 65.56V22H186.377V65.67C186.377 80.63 195.507 89.76 209.697 89.76C223.777 89.76 232.687 80.85 232.687 65.67V22H243.467V65.56C243.467 88.99 227.627 99.88 209.697 99.88C190.887 99.88 175.597 89.32 175.597 65.56ZM249.825 22H261.375L287.995 84.48C288.435 85.58 288.655 87.12 288.655 88.33H288.875C288.875 87.12 289.095 85.58 289.535 84.48L316.155 22H327.705V99H316.925V51.81C316.925 47.41 317.695 41.58 318.575 37.18H318.355C317.475 41.47 315.715 47.08 313.955 51.15L294.155 99H283.375L263.575 51.15C261.815 47.08 260.055 41.47 259.175 37.18H258.955C259.835 41.58 260.605 47.41 260.605 51.81V99H249.825V22ZM334.259 99V22H345.039V99H334.259ZM362.441 99H351.661V22H362.771L405.121 78.76C406.991 81.18 408.751 84.59 409.631 87.45L409.851 87.34C408.861 84.59 408.201 80.74 408.201 77.77V22H418.981V99H407.871L365.411 42.9C363.651 40.59 361.891 37.07 360.901 34.21L360.791 34.32C361.671 37.18 362.441 40.92 362.441 44V99Z" fill="black"/>
<path d="M436.238 99H424.578L453.618 22H469.348L498.388 99H486.838L479.688 80.63H443.168L436.238 99ZM461.428 31.68L446.578 71.06C455.818 71.06 462.198 70.95 466.928 71.5C471.548 71.94 476.168 73.92 479.358 79.53L461.428 31.68ZM504.093 99V22H514.873V99H504.093ZM532.385 99H521.495V22H556.695C574.295 22 584.855 28.93 584.855 44.33C584.855 51.37 582.105 54.89 579.135 57.53C576.275 60.72 570.445 62.37 566.155 63.14V63.36C568.465 62.92 571.325 62.37 574.075 62.37C576.495 62.37 578.695 62.81 580.345 64.13C583.315 66 585.625 69.19 585.625 76.78L585.735 99H574.845V77.44C574.845 73.26 572.865 71.28 567.035 71.28L532.385 71.39V99ZM532.385 61.82H554.605C566.485 61.82 574.955 55.22 574.955 46.53C574.955 35.09 567.695 31.35 555.815 31.35H532.385V61.82Z" fill="#F86032"/>
</svg>
