<svg width="203" height="54" viewBox="0 0 203 54" fill="none" xmlns="http://www.w3.org/2000/svg">
<path d="M55 18.5357H57.9464V21.4821H55V18.5357ZM57.9464 18.5357H60.8928V21.4821H57.9464V18.5357ZM57.9464 21.4821H60.8928V24.4286H57.9464V21.4821ZM57.9464 24.4286H60.8928V27.375H57.9464V24.4286ZM57.9464 27.375H60.8928V30.3214H57.9464V27.375ZM57.9464 30.3214H60.8928V33.2679H57.9464V30.3214ZM57.9464 33.2679H60.8928V36.2143H57.9464V33.2679ZM55 33.2679H57.9464V36.2143H55V33.2679ZM55 36.2143H57.9464V39.1607H55V36.2143ZM55 39.1607H57.9464V42.1071H55V39.1607ZM55 42.1071H57.9464V45.0536H55V42.1071ZM55 45.0536H57.9464V48H55V45.0536ZM57.9464 45.0536H60.8928V48H57.9464V45.0536ZM57.9464 42.1071H60.8928V45.0536H57.9464V42.1071ZM57.9464 39.1607H60.8928V42.1071H57.9464V39.1607ZM57.9464 36.2143H60.8928V39.1607H57.9464V36.2143ZM55 30.3214H57.9464V33.2679H55V30.3214ZM55 27.375H57.9464V30.3214H55V27.375ZM55 24.4286H57.9464V27.375H55V24.4286ZM55 21.4821H57.9464V24.4286H55V21.4821ZM84.4873 45.0536H81.5409V42.1071H84.4873V45.0536ZM84.4873 48H81.5409V45.0536H84.4873V48ZM81.5409 48H78.5944V45.0536H81.5409V48ZM81.5409 45.0536H78.5944V42.1071H81.5409V45.0536ZM81.5409 42.1071H78.5944V39.1607H81.5409V42.1071ZM81.5409 39.1607H78.5944V36.2143H81.5409V39.1607ZM81.5409 36.2143H78.5944V33.2679H81.5409V36.2143ZM84.4873 36.2143H81.5409V33.2679H84.4873V36.2143ZM84.4873 39.1607H81.5409V36.2143H84.4873V39.1607ZM84.4873 42.1071H81.5409V39.1607H84.4873V42.1071ZM84.4873 33.2679H81.5409V30.3214H84.4873V33.2679ZM81.5409 33.2679H78.5944V30.3214H81.5409V33.2679ZM81.5409 30.3214H78.5944V27.375H81.5409V30.3214ZM81.5409 27.375H78.5944V24.4286H81.5409V27.375ZM84.4873 27.375H81.5409V24.4286H84.4873V27.375ZM84.4873 30.3214H81.5409V27.375H84.4873V30.3214ZM69.7551 27.375H66.8087V24.4286H69.7551V27.375ZM66.8087 27.375H63.8623V24.4286H66.8087V27.375ZM66.8087 30.3214H63.8623V27.375H66.8087V30.3214ZM66.8087 33.2679H63.8623V30.3214H66.8087V33.2679ZM66.8087 36.2143H63.8623V33.2679H66.8087V36.2143ZM66.8087 39.1607H63.8623V36.2143H66.8087V39.1607ZM66.8087 42.1071H63.8623V39.1607H66.8087V42.1071ZM66.8087 45.0536H63.8623V42.1071H66.8087V45.0536ZM69.7551 39.1607H66.8087V36.2143H69.7551V39.1607ZM69.7551 36.2143H66.8087V33.2679H69.7551V36.2143ZM69.7551 33.2679H66.8087V30.3214H69.7551V33.2679ZM69.7551 30.3214H66.8087V27.375H69.7551V30.3214ZM69.7551 42.1071H66.8087V39.1607H69.7551V42.1071ZM78.5944 45.0536H75.648V42.1071H78.5944V45.0536ZM75.648 45.0536H72.7016V42.1071H75.648V45.0536ZM72.7016 45.0536H69.7551V42.1071H72.7016V45.0536ZM72.7016 48H69.7551V45.0536H72.7016V48ZM69.7551 48H66.8087V45.0536H69.7551V48ZM69.7551 45.0536H66.8087V42.1071H69.7551V45.0536ZM75.648 48H72.7016V45.0536H75.648V48ZM87.4414 27.375H90.3878V30.3214H87.4414V27.375ZM87.4414 24.4286H90.3878V27.375H87.4414V24.4286ZM90.3878 24.4286H93.3342V27.375H90.3878V24.4286ZM90.3878 27.375H93.3342V30.3214H90.3878V27.375ZM90.3878 30.3214H93.3342V33.2679H90.3878V30.3214ZM90.3878 33.2679H93.3342V36.2143H90.3878V33.2679ZM90.3878 36.2143H93.3342V39.1607H90.3878V36.2143ZM87.4414 36.2143H90.3878V39.1607H87.4414V36.2143ZM87.4414 33.2679H90.3878V36.2143H87.4414V33.2679ZM87.4414 30.3214H90.3878V33.2679H87.4414V30.3214ZM87.4414 39.1607H90.3878V42.1071H87.4414V39.1607ZM90.3878 39.1607H93.3342V42.1071H90.3878V39.1607ZM90.3878 42.1071H93.3342V45.0536H90.3878V42.1071ZM90.3878 45.0536H93.3342V48H90.3878V45.0536ZM87.4414 45.0536H90.3878V48H87.4414V45.0536ZM87.4414 42.1071H90.3878V45.0536H87.4414V42.1071ZM99.2271 45.0536H102.174V48H99.2271V45.0536ZM102.174 45.0536H105.12V48H102.174V45.0536ZM102.174 42.1071H105.12V45.0536H102.174V42.1071ZM102.174 39.1607H105.12V42.1071H102.174V39.1607ZM102.174 36.2143H105.12V39.1607H102.174V36.2143ZM102.174 33.2679H105.12V36.2143H102.174V33.2679ZM102.174 30.3214H105.12V33.2679H102.174V30.3214ZM102.174 27.375H105.12V30.3214H102.174V27.375ZM99.2271 33.2679H102.174V36.2143H99.2271V33.2679ZM99.2271 36.2143H102.174V39.1607H99.2271V36.2143ZM99.2271 39.1607H102.174V42.1071H99.2271V39.1607ZM99.2271 42.1071H102.174V45.0536H99.2271V42.1071ZM99.2271 30.3214H102.174V33.2679H99.2271V30.3214ZM93.3342 27.375H96.2807V30.3214H93.3342V27.375ZM96.2807 27.375H99.2271V30.3214H96.2807V27.375ZM99.2271 24.4286H102.174V27.375H99.2271V24.4286ZM99.2271 27.375H102.174V30.3214H99.2271V27.375ZM96.2807 24.4286H99.2271V27.375H96.2807V24.4286ZM111.013 45.0536H113.959V48H111.013V45.0536ZM113.959 45.0536H116.906V48H113.959V45.0536ZM113.959 42.1071H116.906V45.0536H113.959V42.1071ZM113.959 39.1607H116.906V42.1071H113.959V39.1607ZM113.959 36.2143H116.906V39.1607H113.959V36.2143ZM113.959 33.2679H116.906V36.2143H113.959V33.2679ZM113.959 30.3214H116.906V33.2679H113.959V30.3214ZM113.959 27.375H116.906V30.3214H113.959V27.375ZM111.013 33.2679H113.959V36.2143H111.013V33.2679ZM111.013 36.2143H113.959V39.1607H111.013V36.2143ZM111.013 39.1607H113.959V42.1071H111.013V39.1607ZM111.013 42.1071H113.959V45.0536H111.013V42.1071ZM111.013 30.3214H113.959V33.2679H111.013V30.3214ZM105.12 27.375H108.066V30.3214H105.12V27.375ZM108.066 27.375H111.013V30.3214H108.066V27.375ZM111.013 24.4286H113.959V27.375H111.013V24.4286ZM111.013 27.375H113.959V30.3214H111.013V27.375ZM108.066 24.4286H111.013V27.375H108.066V24.4286ZM119.829 18.5357H125.722V24.4286H119.829V18.5357ZM119.829 27.375H125.722V48H119.829V27.375ZM128.691 27.375H131.638V30.3214H128.691V27.375ZM128.691 24.4286H131.638V27.375H128.691V24.4286ZM131.638 24.4286H134.584V27.375H131.638V24.4286ZM131.638 27.375H134.584V30.3214H131.638V27.375ZM131.638 30.3214H134.584V33.2679H131.638V30.3214ZM131.638 33.2679H134.584V36.2143H131.638V33.2679ZM131.638 36.2143H134.584V39.1607H131.638V36.2143ZM128.691 36.2143H131.638V39.1607H128.691V36.2143ZM128.691 33.2679H131.638V36.2143H128.691V33.2679ZM128.691 30.3214H131.638V33.2679H128.691V30.3214ZM128.691 39.1607H131.638V42.1071H128.691V39.1607ZM131.638 39.1607H134.584V42.1071H131.638V39.1607ZM131.638 42.1071H134.584V45.0536H131.638V42.1071ZM131.638 45.0536H134.584V48H131.638V45.0536ZM128.691 45.0536H131.638V48H128.691V45.0536ZM128.691 42.1071H131.638V45.0536H128.691V42.1071ZM143.424 45.0536H146.37V48H143.424V45.0536ZM146.37 45.0536H149.316V48H146.37V45.0536ZM146.37 42.1071H149.316V45.0536H146.37V42.1071ZM146.37 39.1607H149.316V42.1071H146.37V39.1607ZM146.37 36.2143H149.316V39.1607H146.37V36.2143ZM146.37 33.2679H149.316V36.2143H146.37V33.2679ZM146.37 30.3214H149.316V33.2679H146.37V30.3214ZM146.37 27.375H149.316V30.3214H146.37V27.375ZM143.424 33.2679H146.37V36.2143H143.424V33.2679ZM143.424 36.2143H146.37V39.1607H143.424V36.2143ZM143.424 39.1607H146.37V42.1071H143.424V39.1607ZM143.424 42.1071H146.37V45.0536H143.424V42.1071ZM143.424 30.3214H146.37V33.2679H143.424V30.3214ZM134.584 27.375H137.531V30.3214H134.584V27.375ZM137.531 27.375H140.477V30.3214H137.531V27.375ZM140.477 27.375H143.424V30.3214H140.477V27.375ZM140.477 24.4286H143.424V27.375H140.477V24.4286ZM143.424 24.4286H146.37V27.375H143.424V24.4286ZM143.424 27.375H146.37V30.3214H143.424V27.375ZM137.531 24.4286H140.477V27.375H137.531V24.4286ZM169.949 48H167.003V45.0536H169.949V48ZM169.949 45.0536H167.003V42.1071H169.949V45.0536ZM167.003 45.0536H164.056V42.1071H167.003V45.0536ZM164.056 48H161.11V45.0536H164.056V48ZM161.11 48H158.163V45.0536H161.11V48ZM158.163 48H155.217V45.0536H158.163V48ZM158.163 45.0536H155.217V42.1071H158.163V45.0536ZM161.11 45.0536H158.163V42.1071H161.11V45.0536ZM155.217 45.0536H152.27V42.1071H155.217V45.0536ZM155.217 42.1071H152.27V39.1607H155.217V42.1071ZM155.217 30.3214H152.27V27.375H155.217V30.3214ZM158.163 30.3214H155.217V27.375H158.163V30.3214ZM158.163 42.1071H155.217V39.1607H158.163V42.1071ZM161.11 30.3214H158.163V27.375H161.11V30.3214ZM158.163 27.375H155.217V24.4286H158.163V27.375ZM161.11 27.375H158.163V24.4286H161.11V27.375ZM164.056 27.375H161.11V24.4286H164.056V27.375ZM167.003 27.375H164.056V24.4286H167.003V27.375ZM169.949 27.375H167.003V24.4286H169.949V27.375ZM169.949 30.3214H167.003V27.375H169.949V30.3214ZM167.003 30.3214H164.056V27.375H167.003V30.3214ZM169.949 33.2679H167.003V30.3214H169.949V33.2679ZM172.895 30.3214H169.949V27.375H172.895V30.3214ZM172.895 33.2679H169.949V30.3214H172.895V33.2679ZM172.895 36.2143H169.949V33.2679H172.895V36.2143ZM172.895 39.1607H169.949V36.2143H172.895V39.1607ZM172.895 42.1071H169.949V39.1607H172.895V42.1071ZM172.895 45.0536H169.949V42.1071H172.895V45.0536ZM169.949 42.1071H167.003V39.1607H169.949V42.1071ZM169.949 39.1607H167.003V36.2143H169.949V39.1607ZM169.949 36.2143H167.003V33.2679H169.949V36.2143ZM164.056 30.3214H161.11V27.375H164.056V30.3214ZM164.056 45.0536H161.11V42.1071H164.056V45.0536ZM169.949 45.0536H172.895V48H169.949V45.0536ZM164.056 33.2679H167.003V36.2143H164.056V33.2679ZM161.11 33.2679H164.056V36.2143H161.11V33.2679ZM158.163 33.2679H161.11V36.2143H158.163V33.2679ZM155.217 33.2679H158.163V36.2143H155.217V33.2679ZM152.27 36.2143H155.217V39.1607H152.27V36.2143ZM155.217 36.2143H158.163V39.1607H155.217V36.2143ZM164.056 36.2143H167.003V39.1607H164.056V36.2143ZM161.11 36.2143H164.056V39.1607H161.11V36.2143ZM158.163 36.2143H161.11V39.1607H158.163V36.2143ZM175.85 18.5357H181.742V24.4286H175.85V18.5357ZM175.85 27.375H181.742V48H175.85V27.375ZM184.712 27.375H187.658V30.3214H184.712V27.375ZM184.712 24.4286H187.658V27.375H184.712V24.4286ZM187.658 24.4286H190.605V27.375H187.658V24.4286ZM187.658 27.375H190.605V30.3214H187.658V27.375ZM187.658 30.3214H190.605V33.2679H187.658V30.3214ZM187.658 33.2679H190.605V36.2143H187.658V33.2679ZM187.658 36.2143H190.605V39.1607H187.658V36.2143ZM184.712 36.2143H187.658V39.1607H184.712V36.2143ZM184.712 33.2679H187.658V36.2143H184.712V33.2679ZM184.712 30.3214H187.658V33.2679H184.712V30.3214ZM184.712 39.1607H187.658V42.1071H184.712V39.1607ZM187.658 39.1607H190.605V42.1071H187.658V39.1607ZM187.658 42.1071H190.605V45.0536H187.658V42.1071ZM187.658 45.0536H190.605V48H187.658V45.0536ZM184.712 45.0536H187.658V48H184.712V45.0536ZM184.712 42.1071H187.658V45.0536H184.712V42.1071ZM190.605 27.375H193.551V30.3214H190.605V27.375ZM193.551 27.375H196.498V30.3214H193.551V27.375ZM196.498 27.375H199.444V30.3214H196.498V27.375ZM196.498 24.4286H199.444V27.375H196.498V24.4286ZM193.551 24.4286H196.498V27.375H193.551V24.4286ZM190.605 30.3214H193.551V33.2679H190.605V30.3214ZM199.444 27.375H202.39V30.3214H199.444V27.375ZM196.498 30.3214H199.444V33.2679H196.498V30.3214Z" fill="black"/>
<path fill-rule="evenodd" clip-rule="evenodd" d="M24.65 9L19.72 9L19.72 33.6499L19.7199 33.6499L19.7199 13.93L14.7899 13.93L14.7899 18.86L9.86004 18.86L9.86004 33.6499L4.93001 33.6499L4.93001 33.6499L9.85999 33.6499L9.85999 23.7899L4.93 23.7899L4.93 28.72L2.87936e-05 28.72L2.83626e-05 33.65L0.135449 33.65C1.36166 44.7423 10.7658 53.3699 22.185 53.3699C33.6042 53.3699 43.0083 44.7423 44.2345 33.65L44.3699 33.65L44.3699 28.72L39.44 28.72L39.44 33.6499L34.51 33.6499L39.4399 33.6499L39.4399 23.7899L34.51 23.7899L34.51 18.86L29.58 18.86L29.58 33.6499L29.5799 33.6499L29.5799 13.93L24.65 13.93L24.65 9Z" fill="url(#paint0_linear_548_55)"/>
<defs>
<linearGradient id="paint0_linear_548_55" x1="22.185" y1="53.3699" x2="22.185" y2="9" gradientUnits="userSpaceOnUse">
<stop stop-color="#FF00A5"/>
<stop offset="1" stop-color="#FF1482"/>
</linearGradient>
</defs>
</svg>
