<svg width="147" height="39" viewBox="0 0 147 39" fill="none" xmlns="http://www.w3.org/2000/svg">
<path d="M39 13.5714H41.1429V15.7143H39V13.5714ZM41.1429 13.5714H43.2857V15.7143H41.1429V13.5714ZM41.1429 15.7143H43.2857V17.8571H41.1429V15.7143ZM41.1429 17.8571H43.2857V20H41.1429V17.8571ZM41.1429 20H43.2857V22.1429H41.1429V20ZM41.1429 22.1429H43.2857V24.2857H41.1429V22.1429ZM41.1429 24.2857H43.2857V26.4286H41.1429V24.2857ZM39 24.2857H41.1429V26.4286H39V24.2857ZM39 26.4286H41.1429V28.5714H39V26.4286ZM39 28.5714H41.1429V30.7143H39V28.5714ZM39 30.7143H41.1429V32.8571H39V30.7143ZM39 32.8571H41.1429V35H39V32.8571ZM41.1429 32.8571H43.2857V35H41.1429V32.8571ZM41.1429 30.7143H43.2857V32.8571H41.1429V30.7143ZM41.1429 28.5714H43.2857V30.7143H41.1429V28.5714ZM41.1429 26.4286H43.2857V28.5714H41.1429V26.4286ZM39 22.1429H41.1429V24.2857H39V22.1429ZM39 20H41.1429V22.1429H39V20ZM39 17.8571H41.1429V20H39V17.8571ZM39 15.7143H41.1429V17.8571H39V15.7143ZM60.4453 32.8571H58.3025V30.7143H60.4453V32.8571ZM60.4453 35H58.3025V32.8571H60.4453V35ZM58.3025 35H56.1596V32.8571H58.3025V35ZM58.3025 32.8571H56.1596V30.7143H58.3025V32.8571ZM58.3025 30.7143H56.1596V28.5714H58.3025V30.7143ZM58.3025 28.5714H56.1596V26.4286H58.3025V28.5714ZM58.3025 26.4286H56.1596V24.2857H58.3025V26.4286ZM60.4453 26.4286H58.3025V24.2857H60.4453V26.4286ZM60.4453 28.5714H58.3025V26.4286H60.4453V28.5714ZM60.4453 30.7143H58.3025V28.5714H60.4453V30.7143ZM60.4453 24.2857H58.3025V22.1429H60.4453V24.2857ZM58.3025 24.2857H56.1596V22.1429H58.3025V24.2857ZM58.3025 22.1429H56.1596V20H58.3025V22.1429ZM58.3025 20H56.1596V17.8571H58.3025V20ZM60.4453 20H58.3025V17.8571H60.4453V20ZM60.4453 22.1429H58.3025V20H60.4453V22.1429ZM49.731 20H47.5882V17.8571H49.731V20ZM47.5882 20H45.4453V17.8571H47.5882V20ZM47.5882 22.1429H45.4453V20H47.5882V22.1429ZM47.5882 24.2857H45.4453V22.1429H47.5882V24.2857ZM47.5882 26.4286H45.4453V24.2857H47.5882V26.4286ZM47.5882 28.5714H45.4453V26.4286H47.5882V28.5714ZM47.5882 30.7143H45.4453V28.5714H47.5882V30.7143ZM47.5882 32.8571H45.4453V30.7143H47.5882V32.8571ZM49.731 28.5714H47.5882V26.4286H49.731V28.5714ZM49.731 26.4286H47.5882V24.2857H49.731V26.4286ZM49.731 24.2857H47.5882V22.1429H49.731V24.2857ZM49.731 22.1429H47.5882V20H49.731V22.1429ZM49.731 30.7143H47.5882V28.5714H49.731V30.7143ZM56.1596 32.8571H54.0167V30.7143H56.1596V32.8571ZM54.0167 32.8571H51.8739V30.7143H54.0167V32.8571ZM51.8739 32.8571H49.731V30.7143H51.8739V32.8571ZM51.8739 35H49.731V32.8571H51.8739V35ZM49.731 35H47.5882V32.8571H49.731V35ZM49.731 32.8571H47.5882V30.7143H49.731V32.8571ZM54.0167 35H51.8739V32.8571H54.0167V35ZM62.5938 20H64.7366V22.1429H62.5938V20ZM62.5938 17.8571H64.7366V20H62.5938V17.8571ZM64.7366 17.8571H66.8795V20H64.7366V17.8571ZM64.7366 20H66.8795V22.1429H64.7366V20ZM64.7366 22.1429H66.8795V24.2857H64.7366V22.1429ZM64.7366 24.2857H66.8795V26.4286H64.7366V24.2857ZM64.7366 26.4286H66.8795V28.5714H64.7366V26.4286ZM62.5938 26.4286H64.7366V28.5714H62.5938V26.4286ZM62.5938 24.2857H64.7366V26.4286H62.5938V24.2857ZM62.5938 22.1429H64.7366V24.2857H62.5938V22.1429ZM62.5938 28.5714H64.7366V30.7143H62.5938V28.5714ZM64.7366 28.5714H66.8795V30.7143H64.7366V28.5714ZM64.7366 30.7143H66.8795V32.8571H64.7366V30.7143ZM64.7366 32.8571H66.8795V35H64.7366V32.8571ZM62.5938 32.8571H64.7366V35H62.5938V32.8571ZM62.5938 30.7143H64.7366V32.8571H62.5938V30.7143ZM71.1652 32.8571H73.308V35H71.1652V32.8571ZM73.308 32.8571H75.4509V35H73.308V32.8571ZM73.308 30.7143H75.4509V32.8571H73.308V30.7143ZM73.308 28.5714H75.4509V30.7143H73.308V28.5714ZM73.308 26.4286H75.4509V28.5714H73.308V26.4286ZM73.308 24.2857H75.4509V26.4286H73.308V24.2857ZM73.308 22.1429H75.4509V24.2857H73.308V22.1429ZM73.308 20H75.4509V22.1429H73.308V20ZM71.1652 24.2857H73.308V26.4286H71.1652V24.2857ZM71.1652 26.4286H73.308V28.5714H71.1652V26.4286ZM71.1652 28.5714H73.308V30.7143H71.1652V28.5714ZM71.1652 30.7143H73.308V32.8571H71.1652V30.7143ZM71.1652 22.1429H73.308V24.2857H71.1652V22.1429ZM66.8795 20H69.0223V22.1429H66.8795V20ZM69.0223 20H71.1652V22.1429H69.0223V20ZM71.1652 17.8571H73.308V20H71.1652V17.8571ZM71.1652 20H73.308V22.1429H71.1652V20ZM69.0223 17.8571H71.1652V20H69.0223V17.8571ZM79.7366 32.8571H81.8795V35H79.7366V32.8571ZM81.8795 32.8571H84.0223V35H81.8795V32.8571ZM81.8795 30.7143H84.0223V32.8571H81.8795V30.7143ZM81.8795 28.5714H84.0223V30.7143H81.8795V28.5714ZM81.8795 26.4286H84.0223V28.5714H81.8795V26.4286ZM81.8795 24.2857H84.0223V26.4286H81.8795V24.2857ZM81.8795 22.1429H84.0223V24.2857H81.8795V22.1429ZM81.8795 20H84.0223V22.1429H81.8795V20ZM79.7366 24.2857H81.8795V26.4286H79.7366V24.2857ZM79.7366 26.4286H81.8795V28.5714H79.7366V26.4286ZM79.7366 28.5714H81.8795V30.7143H79.7366V28.5714ZM79.7366 30.7143H81.8795V32.8571H79.7366V30.7143ZM79.7366 22.1429H81.8795V24.2857H79.7366V22.1429ZM75.4509 20H77.5938V22.1429H75.4509V20ZM77.5938 20H79.7366V22.1429H77.5938V20ZM79.7366 17.8571H81.8795V20H79.7366V17.8571ZM79.7366 20H81.8795V22.1429H79.7366V20ZM77.5938 17.8571H79.7366V20H77.5938V17.8571ZM86.1484 13.5714H90.4342V17.8571H86.1484V13.5714ZM86.1484 20H90.4342V35H86.1484V20ZM92.5938 20H94.7366V22.1429H92.5938V20ZM92.5938 17.8571H94.7366V20H92.5938V17.8571ZM94.7366 17.8571H96.8795V20H94.7366V17.8571ZM94.7366 20H96.8795V22.1429H94.7366V20ZM94.7366 22.1429H96.8795V24.2857H94.7366V22.1429ZM94.7366 24.2857H96.8795V26.4286H94.7366V24.2857ZM94.7366 26.4286H96.8795V28.5714H94.7366V26.4286ZM92.5938 26.4286H94.7366V28.5714H92.5938V26.4286ZM92.5938 24.2857H94.7366V26.4286H92.5938V24.2857ZM92.5938 22.1429H94.7366V24.2857H92.5938V22.1429ZM92.5938 28.5714H94.7366V30.7143H92.5938V28.5714ZM94.7366 28.5714H96.8795V30.7143H94.7366V28.5714ZM94.7366 30.7143H96.8795V32.8571H94.7366V30.7143ZM94.7366 32.8571H96.8795V35H94.7366V32.8571ZM92.5938 32.8571H94.7366V35H92.5938V32.8571ZM92.5938 30.7143H94.7366V32.8571H92.5938V30.7143ZM103.308 32.8571H105.451V35H103.308V32.8571ZM105.451 32.8571H107.594V35H105.451V32.8571ZM105.451 30.7143H107.594V32.8571H105.451V30.7143ZM105.451 28.5714H107.594V30.7143H105.451V28.5714ZM105.451 26.4286H107.594V28.5714H105.451V26.4286ZM105.451 24.2857H107.594V26.4286H105.451V24.2857ZM105.451 22.1429H107.594V24.2857H105.451V22.1429ZM105.451 20H107.594V22.1429H105.451V20ZM103.308 24.2857H105.451V26.4286H103.308V24.2857ZM103.308 26.4286H105.451V28.5714H103.308V26.4286ZM103.308 28.5714H105.451V30.7143H103.308V28.5714ZM103.308 30.7143H105.451V32.8571H103.308V30.7143ZM103.308 22.1429H105.451V24.2857H103.308V22.1429ZM96.8795 20H99.0223V22.1429H96.8795V20ZM99.0223 20H101.165V22.1429H99.0223V20ZM101.165 20H103.308V22.1429H101.165V20ZM101.165 17.8571H103.308V20H101.165V17.8571ZM103.308 17.8571H105.451V20H103.308V17.8571ZM103.308 20H105.451V22.1429H103.308V20ZM99.0223 17.8571H101.165V20H99.0223V17.8571ZM122.599 35H120.456V32.8571H122.599V35ZM122.599 32.8571H120.456V30.7143H122.599V32.8571ZM120.456 32.8571H118.314V30.7143H120.456V32.8571ZM118.314 35H116.171V32.8571H118.314V35ZM116.171 35H114.028V32.8571H116.171V35ZM114.028 35H111.885V32.8571H114.028V35ZM114.028 32.8571H111.885V30.7143H114.028V32.8571ZM116.171 32.8571H114.028V30.7143H116.171V32.8571ZM111.885 32.8571H109.742V30.7143H111.885V32.8571ZM111.885 30.7143H109.742V28.5714H111.885V30.7143ZM111.885 22.1429H109.742V20H111.885V22.1429ZM114.028 22.1429H111.885V20H114.028V22.1429ZM114.028 30.7143H111.885V28.5714H114.028V30.7143ZM116.171 22.1429H114.028V20H116.171V22.1429ZM114.028 20H111.885V17.8571H114.028V20ZM116.171 20H114.028V17.8571H116.171V20ZM118.314 20H116.171V17.8571H118.314V20ZM120.456 20H118.314V17.8571H120.456V20ZM122.599 20H120.456V17.8571H122.599V20ZM122.599 22.1429H120.456V20H122.599V22.1429ZM120.456 22.1429H118.314V20H120.456V22.1429ZM122.599 24.2857H120.456V22.1429H122.599V24.2857ZM124.742 22.1429H122.599V20H124.742V22.1429ZM124.742 24.2857H122.599V22.1429H124.742V24.2857ZM124.742 26.4286H122.599V24.2857H124.742V26.4286ZM124.742 28.5714H122.599V26.4286H124.742V28.5714ZM124.742 30.7143H122.599V28.5714H124.742V30.7143ZM124.742 32.8571H122.599V30.7143H124.742V32.8571ZM122.599 30.7143H120.456V28.5714H122.599V30.7143ZM122.599 28.5714H120.456V26.4286H122.599V28.5714ZM122.599 26.4286H120.456V24.2857H122.599V26.4286ZM118.314 22.1429H116.171V20H118.314V22.1429ZM118.314 32.8571H116.171V30.7143H118.314V32.8571ZM122.599 32.8571H124.742V35H122.599V32.8571ZM118.314 24.2857H120.456V26.4286H118.314V24.2857ZM116.171 24.2857H118.314V26.4286H116.171V24.2857ZM114.028 24.2857H116.171V26.4286H114.028V24.2857ZM111.885 24.2857H114.028V26.4286H111.885V24.2857ZM109.742 26.4286H111.885V28.5714H109.742V26.4286ZM111.885 26.4286H114.028V28.5714H111.885V26.4286ZM118.314 26.4286H120.456V28.5714H118.314V26.4286ZM116.171 26.4286H118.314V28.5714H116.171V26.4286ZM114.028 26.4286H116.171V28.5714H114.028V26.4286ZM126.891 13.5714H131.176V17.8571H126.891V13.5714ZM126.891 20H131.176V35H126.891V20ZM133.336 20H135.479V22.1429H133.336V20ZM133.336 17.8571H135.479V20H133.336V17.8571ZM135.479 17.8571H137.622V20H135.479V17.8571ZM135.479 20H137.622V22.1429H135.479V20ZM135.479 22.1429H137.622V24.2857H135.479V22.1429ZM135.479 24.2857H137.622V26.4286H135.479V24.2857ZM135.479 26.4286H137.622V28.5714H135.479V26.4286ZM133.336 26.4286H135.479V28.5714H133.336V26.4286ZM133.336 24.2857H135.479V26.4286H133.336V24.2857ZM133.336 22.1429H135.479V24.2857H133.336V22.1429ZM133.336 28.5714H135.479V30.7143H133.336V28.5714ZM135.479 28.5714H137.622V30.7143H135.479V28.5714ZM135.479 30.7143H137.622V32.8571H135.479V30.7143ZM135.479 32.8571H137.622V35H135.479V32.8571ZM133.336 32.8571H135.479V35H133.336V32.8571ZM133.336 30.7143H135.479V32.8571H133.336V30.7143ZM137.622 20H139.765V22.1429H137.622V20ZM139.765 20H141.907V22.1429H139.765V20ZM141.907 20H144.05V22.1429H141.907V20ZM141.907 17.8571H144.05V20H141.907V17.8571ZM139.765 17.8571H141.907V20H139.765V17.8571ZM137.622 22.1429H139.765V24.2857H137.622V22.1429ZM144.05 20H146.193V22.1429H144.05V20ZM141.907 22.1429H144.05V24.2857H141.907V22.1429Z" fill="black"/>
<path fill-rule="evenodd" clip-rule="evenodd" d="M13.7777 39L17.2222 39L17.2222 21.7778L17.2222 21.7778L17.2222 35.5556L20.6667 35.5556L20.6667 32.1111L24.1111 32.1111L24.1111 21.7778L27.5555 21.7778L27.5556 21.7778L24.1111 21.7778L24.1111 28.6667L27.5556 28.6667L27.5556 25.2222L31 25.2222L31 21.7778L30.9054 21.7778C30.0487 14.0279 23.4783 8 15.5 8C7.5217 8 0.9513 14.0279 0.0945831 21.7778L-2.71046e-05 21.7778L-2.74057e-05 25.2222L3.44442 25.2222L3.44442 21.7778L6.88884 21.7778L6.88884 21.7778L3.44445 21.7778L3.44445 28.6667L6.88883 28.6667L6.88883 32.1111L10.3333 32.1111L10.3333 21.7778L10.3333 21.7778L10.3333 35.5556L13.7777 35.5556L13.7777 39Z" fill="url(#paint0_linear_548_55)"/>
<defs>
<linearGradient id="paint0_linear_548_55" x1="15.5" y1="8" x2="15.5" y2="39" gradientUnits="userSpaceOnUse">
<stop stop-color="#FF00A5"/>
<stop offset="1" stop-color="#FF1482"/>
</linearGradient>
</defs>
</svg>
