<?xml version="1.0" encoding="UTF-8" standalone="no"?><!DOCTYPE svg PUBLIC "-//W3C//DTD SVG 1.1//EN" "http://www.w3.org/Graphics/SVG/1.1/DTD/svg11.dtd"><!-- Generated by graphviz version 2.40.1 (20161225.0304)
 --><!-- Title: %0 Pages: 1 --><svg xmlns="http://www.w3.org/2000/svg" xmlns:xlink="http://www.w3.org/1999/xlink" width="316pt" height="188pt" viewBox="0.00 0.00 316.00 188.00">
<g id="graph0" class="graph" transform="scale(1 1) rotate(0) translate(4 184)">
<title>%0</title>
<polygon fill="#ffffff" stroke="transparent" points="-4,4 -4,-184 312.0021,-184 312.0021,4 -4,4"/>
<!-- 0 -->
<g id="node1" class="node">
<title>0</title>
<ellipse fill="none" stroke="#000000" cx="73.3074" cy="-162" rx="73.1153" ry="18"/>
<text text-anchor="middle" x="73.3074" y="-157.8" font-family="Times,serif" font-size="14.00" fill="#000000">Weight Load | 0</text>
</g>
<!-- 2 -->
<g id="node3" class="node">
<title>2</title>
<ellipse fill="none" stroke="#000000" cx="154.3074" cy="-90" rx="60.3484" ry="18"/>
<text text-anchor="middle" x="154.3074" y="-85.8" font-family="Times,serif" font-size="14.00" fill="#000000">CairoMul | 2</text>
</g>
<!-- 0&#45;&gt;2 -->
<g id="edge1" class="edge">
<title>0-&gt;2</title>
<path fill="none" stroke="#000000" d="M92.9152,-144.5708C103.2626,-135.3732 116.1155,-123.9484 127.383,-113.9328"/>
<polygon fill="#000000" stroke="#000000" points="129.7313,-116.5283 134.8801,-107.2687 125.0807,-111.2964 129.7313,-116.5283"/>
</g>
<!-- 1 -->
<g id="node2" class="node">
<title>1</title>
<ellipse fill="none" stroke="#000000" cx="236.3074" cy="-162" rx="71.8899" ry="18"/>
<text text-anchor="middle" x="236.3074" y="-157.8" font-family="Times,serif" font-size="14.00" fill="#000000">Tensor Load | 1</text>
</g>
<!-- 1&#45;&gt;2 -->
<g id="edge2" class="edge">
<title>1-&gt;2</title>
<path fill="none" stroke="#000000" d="M216.4575,-144.5708C205.9824,-135.3732 192.9708,-123.9484 181.5641,-113.9328"/>
<polygon fill="#000000" stroke="#000000" points="183.7982,-111.2367 173.9745,-107.2687 179.1796,-116.4968 183.7982,-111.2367"/>
</g>
<!-- 3 -->
<g id="node4" class="node">
<title>3</title>
<ellipse fill="none" stroke="#000000" cx="154.3074" cy="-18" rx="90.9886" ry="18"/>
<text text-anchor="middle" x="154.3074" y="-13.8" font-family="Times,serif" font-size="14.00" fill="#000000">CairoSumReduce | 3</text>
</g>
<!-- 2&#45;&gt;3 -->
<g id="edge3" class="edge">
<title>2-&gt;3</title>
<path fill="none" stroke="#000000" d="M154.3074,-71.8314C154.3074,-64.131 154.3074,-54.9743 154.3074,-46.4166"/>
<polygon fill="#000000" stroke="#000000" points="157.8075,-46.4132 154.3074,-36.4133 150.8075,-46.4133 157.8075,-46.4132"/>
</g>
</g>
</svg>